<svg width="42" height="42" viewBox="0 0 42 42" fill="none" xmlns="http://www.w3.org/2000/svg">
<path d="M39.4107 21.1314C39.4107 19.6401 39.2872 18.5519 39.02 17.4233H21.6433V24.1543H31.843C31.6375 25.8271 30.527 28.3462 28.0593 30.0389L28.0247 30.2643L33.5189 34.4354L33.8995 34.4726C37.3953 31.3086 39.4107 26.6533 39.4107 21.1314Z" fill="#4285F4"/>
<path d="M21.6422 38.8662C26.6392 38.8662 30.8342 37.2538 33.8983 34.4728L28.0581 30.039C26.4953 31.1072 24.3977 31.8528 21.6422 31.8528C16.748 31.8528 12.5941 28.6889 11.1133 24.3157L10.8963 24.3337L5.18335 28.6667L5.10864 28.8702C8.15209 34.7951 14.4036 38.8662 21.6422 38.8662Z" fill="#34A853"/>
<path d="M11.1145 24.3158C10.7238 23.1873 10.4977 21.978 10.4977 20.7286C10.4977 19.479 10.7238 18.2699 11.094 17.1414L11.0836 16.901L5.29911 12.4985L5.10985 12.5868C3.85549 15.0454 3.13574 17.8064 3.13574 20.7286C3.13574 23.6507 3.85549 26.4116 5.10985 28.8703L11.1145 24.3158Z" fill="#FBBC05"/>
<path d="M21.6423 9.60421C25.1176 9.60421 27.4618 11.0754 28.7986 12.3048L34.0218 7.30683C30.8139 4.38468 26.6393 2.59106 21.6423 2.59106C14.4036 2.59106 8.15211 6.66191 5.10864 12.5868L11.0928 17.1414C12.5941 12.7682 16.748 9.60421 21.6423 9.60421Z" fill="#EB4335"/>
</svg>
